<svg xmlns="http://www.w3.org/2000/svg" viewBox="0 0 654 655" preserveAspectRatio="xMidYMid slice">
<g transform="translate(0.000000,655.000000) scale(0.100000,-0.100000)"
fill="currentColor" stroke="none">
<path d="M2484 6520 c37 -231 11 -332 -102 -401 -66 -40 -92 -79 -92 -137 0
-50 -12 -77 -51 -112 -23 -21 -29 -38 -39 -110 -6 -47 -14 -100 -17 -118 -7
-42 11 -84 45 -104 48 -29 62 -52 68 -114 8 -90 21 -99 147 -100 137 0 132 1
177 -40 53 -48 67 -94 50 -172 -15 -72 -4 -116 44 -170 33 -38 36 -55 39 -242
1 -72 -29 -142 -98 -228 -42 -52 -42 -58 -8 -153 35 -97 39 -251 9 -312 -24
-48 -75 -83 -145 -98 -87 -18 -105 -44 -97 -134 l7 -74 -36 -28 c-42 -33 -42
-36 -10 -105 14 -29 25 -63 25 -76 0 -49 27 -81 85 -97 50 -15 55 -19 71 -61
22 -57 46 -74 105 -74 26 0 60 -7 75 -15 50 -26 88 -19 139 25 124 108 197
101 296 -26 55 -71 95 -94 169 -94 72 0 112 -25 145 -89 32 -64 51 -74 140
-72 86 2 118 -17 137 -80 16 -55 57 -87 120 -95 39 -5 61 -15 87 -40 35 -32
36 -32 41 -136 6 -117 13 -133 72 -179 58 -43 88 -80 88 -105 0 -12 11 -42 25
-65 14 -24 32 -65 41 -91 30 -90 71 -112 235 -123 135 -10 189 -57 189 -163 0
-41 6 -61 24 -85 14 -18 30 -54 37 -82 14 -56 65 -165 78 -165 31 0 61 -51 61
-105 0 -39 7 -70 24 -103 13 -26 26 -72 30 -103 15 -118 81 -166 212 -154 184
18 284 -77 268 -253 -12 -126 14 -179 124 -249 86 -55 130 -146 93 -192 -53
-66 -54 -67 -37 -99 8 -16 22 -32 30 -35 34 -13 49 -66 32 -111 -20 -53 -20
-115 0 -144 19 -27 50 -31 39 -4 -16 40 -16 83 -2 127 21 59 13 96 -29 142
-41 44 -41 45 -8 89 56 73 12 188 -102 264 -96 64 -107 88 -99 216 8 116 -1
148 -59 212 -57 62 -122 86 -231 84 -155 -2 -203 27 -189 115 4 30 -1 49 -25
95 -22 40 -31 71 -31 103 0 58 -17 91 -68 132 -33 27 -42 43 -57 100 -10 37
-28 88 -41 112 -15 27 -24 60 -24 88 0 57 -39 133 -86 169 -32 25 -49 29 -167
40 -159 14 -156 13 -211 170 -37 107 -39 110 -117 185 l-79 76 0 84 c-1 141
-39 195 -158 223 -78 18 -79 19 -107 81 -31 70 -65 89 -157 87 -75 -2 -75 -2
-119 76 -38 68 -77 92 -149 92 -75 0 -116 24 -169 100 -88 124 -183 130 -340
20 l-62 -44 -47 17 c-26 10 -66 17 -90 17 -41 0 -43 2 -62 44 -20 47 -52 76
-85 76 -36 0 -65 28 -65 64 0 18 -11 55 -25 82 -30 59 -31 69 -7 86 31 22 37
41 37 116 0 85 16 105 94 117 72 11 116 39 140 88 47 97 49 212 5 342 -33 97
-31 119 14 170 22 25 51 77 70 126 32 84 32 84 17 137 -13 43 -14 60 -5 88 15
43 5 75 -45 139 -31 42 -36 54 -31 84 18 112 18 122 2 166 -38 98 -120 140
-258 130 -112 -8 -118 -4 -118 85 0 54 -6 63 -85 128 -30 25 -29 14 -5 177 11
72 16 83 47 110 32 28 35 35 37 91 2 77 19 104 93 146 48 28 63 43 86 90 50
98 47 292 -4 350 l-20 23 5 -35z"/>
<path d="M2953 6442 c-93 -163 -92 -188 10 -275 87 -74 126 -175 97 -251 -5
-13 -32 -50 -60 -80 -37 -42 -50 -64 -50 -87 0 -30 31 -103 50 -114 31 -19 40
-62 23 -110 -15 -44 -15 -52 1 -100 9 -28 16 -77 16 -108 0 -40 7 -70 26 -107
23 -46 25 -60 20 -116 -20 -208 -20 -191 9 -256 33 -73 31 -88 -25 -254 -45
-132 -46 -155 -3 -211 32 -42 36 -100 13 -195 -16 -65 -24 -48 83 -174 79 -94
86 -122 56 -226 -34 -120 -27 -150 35 -162 40 -8 55 -24 90 -93 35 -71 69 -77
233 -43 59 13 63 12 117 -14 32 -16 69 -44 87 -67 35 -44 66 -63 121 -73 58
-10 95 -49 114 -114 26 -97 35 -112 96 -165 50 -43 68 -68 109 -154 27 -56 55
-105 62 -110 43 -26 61 -72 67 -175 6 -98 7 -102 38 -129 28 -25 40 -29 95
-29 52 0 69 -5 107 -30 29 -19 58 -30 80 -30 52 0 78 -23 114 -104 28 -60 44
-80 97 -123 102 -82 111 -93 118 -168 6 -59 11 -69 48 -108 51 -51 63 -81 63
-155 1 -180 81 -270 230 -260 l68 5 7 -36 c11 -61 46 -96 132 -131 272 -112
354 -198 325 -340 -23 -111 -17 -132 60 -217 51 -57 52 -66 7 -224 -31 -114
-31 -128 11 -179 18 -22 19 -30 9 -58 -24 -69 21 -129 116 -157 68 -19 108
-44 148 -92 39 -46 53 -41 25 8 -35 62 -89 106 -155 125 -82 23 -96 38 -90 94
3 25 9 53 12 62 5 13 -3 27 -26 49 l-33 31 11 64 c6 36 19 77 29 92 38 57 23
176 -26 202 -38 20 -73 96 -66 143 18 129 18 148 2 192 -32 82 -167 180 -311
225 -96 30 -155 89 -155 154 0 29 -24 36 -88 26 -131 -22 -202 59 -202 232 0
85 -10 110 -65 164 -39 37 -45 49 -45 84 0 58 -29 108 -103 176 -77 71 -108
114 -131 177 -22 60 -46 75 -130 85 -52 7 -72 14 -94 35 -25 24 -36 27 -94 27
-86 0 -91 6 -98 135 -6 107 -6 108 -68 179 -19 21 -51 75 -71 120 -31 66 -49
91 -99 134 -61 53 -73 74 -102 182 -16 60 -64 104 -131 120 -42 10 -66 26
-124 80 -96 89 -131 99 -253 75 -128 -24 -140 -21 -177 45 -23 42 -41 60 -74
77 -63 32 -63 32 -40 98 41 116 13 232 -79 325 -76 76 -74 71 -57 126 23 76
19 127 -15 191 -38 71 -38 71 15 241 47 150 48 165 15 232 -27 55 -30 91 -15
181 15 94 9 145 -25 221 -27 61 -39 200 -25 290 7 45 5 52 -34 111 -51 79 -52
103 -5 148 114 109 112 239 -6 363 -108 114 -110 127 -45 236 32 53 45 85 45
112 0 21 -1 38 -2 38 -2 0 -31 -48 -65 -108z"/>
<path d="M4558 6507 c-68 -50 -80 -72 -71 -132 6 -45 5 -46 -45 -93 l-50 -47
-4 -150 c-4 -163 -17 -209 -77 -285 -51 -65 -55 -77 -33 -118 11 -20 32 -60
47 -89 l27 -51 -36 -103 c-29 -85 -43 -110 -76 -140 -22 -20 -41 -45 -41 -55
-1 -11 -3 -44 -5 -74 -2 -30 -8 -72 -15 -92 -12 -38 6 -85 48 -119 39 -33 92
-133 108 -204 12 -52 30 -93 61 -141 24 -37 44 -79 44 -93 0 -86 40 -134 160
-197 95 -49 146 -95 184 -168 31 -59 32 -71 6 -131 -41 -96 -24 -124 108 -171
88 -31 107 -45 132 -94 25 -49 48 -67 103 -80 104 -23 178 -75 239 -167 18
-28 43 -49 80 -66 74 -35 80 -45 94 -149 8 -55 19 -97 29 -108 29 -32 101 -41
181 -24 113 26 138 29 168 26 40 -5 103 -74 156 -172 77 -140 82 -145 187
-145 l89 0 53 -48 c53 -47 90 -65 110 -52 19 11 12 22 -20 29 -20 4 -51 26
-86 62 -51 54 -55 56 -91 49 -20 -4 -49 -9 -65 -12 -41 -8 -70 17 -128 114
-133 223 -160 240 -319 202 -164 -38 -220 -18 -220 78 0 81 -58 173 -108 173
-15 0 -35 13 -55 37 -88 102 -124 135 -180 163 -33 16 -71 30 -84 30 -43 0
-83 29 -103 74 -22 52 -57 81 -107 89 -43 7 -131 59 -140 83 -3 9 4 36 16 60
59 124 -15 249 -207 349 -102 52 -128 82 -141 163 -5 32 -22 69 -48 108 -24
35 -46 81 -53 114 -17 74 -58 153 -116 224 -47 57 -49 61 -47 115 5 108 21
163 57 201 41 43 50 60 87 166 36 105 36 108 -6 174 -48 75 -48 121 0 178 63
73 70 99 70 268 0 157 5 176 45 189 32 10 52 54 55 119 3 59 4 61 56 107 74
65 56 84 -23 26z"/>
<path d="M92 6528 c-32 -32 -8 -105 65 -192 13 -16 35 -51 49 -78 40 -78 112
-90 140 -23 31 75 6 256 -41 295 -21 17 -19 0 5 -78 24 -76 25 -140 5 -188
-18 -44 -30 -41 -72 17 -17 24 -48 63 -67 85 -52 60 -69 99 -62 140 7 35 -1
43 -22 22z"/>
<path d="M441 6483 c41 -78 37 -144 -16 -256 -46 -94 -45 -138 4 -244 32 -68
32 -73 21 -124 -15 -67 -4 -113 45 -189 19 -30 35 -64 35 -76 0 -38 -54 -98
-118 -132 -75 -40 -102 -72 -102 -121 0 -46 52 -136 119 -206 62 -64 65 -74
40 -145 l-20 -59 27 -43 c15 -24 40 -59 55 -78 15 -19 33 -57 40 -85 7 -27 23
-72 36 -100 29 -64 29 -92 -2 -164 -34 -82 -39 -127 -21 -180 36 -100 10 -155
-99 -207 -83 -39 -84 -42 -95 -142 -7 -69 -9 -74 -59 -127 -58 -61 -64 -92
-36 -195 30 -111 13 -175 -59 -220 -44 -27 -76 -85 -76 -137 1 -65 35 -122
126 -209 l84 -81 0 -84 c1 -139 30 -182 181 -260 91 -48 141 -99 164 -170 21
-63 59 -94 148 -120 132 -38 157 -49 173 -80 18 -35 69 -69 104 -69 44 -1 95
-25 160 -75 l63 -48 -6 -62 c-12 -127 23 -148 264 -155 l175 -5 34 -29 c39
-32 100 -33 189 -1 86 30 134 17 199 -53 36 -39 71 -41 156 -12 72 26 105 17
162 -41 48 -51 108 -92 154 -108 19 -6 74 -28 122 -47 l86 -36 33 -90 c29 -82
32 -100 31 -194 -3 -135 8 -160 104 -251 l76 -72 -6 -55 c-8 -61 11 -111 58
-155 32 -30 46 -77 46 -154 0 -115 107 -237 207 -237 16 0 62 -11 101 -25 39
-14 89 -25 110 -25 71 0 132 -83 132 -179 0 -62 11 -77 30 -42 30 56 0 146
-75 224 -41 42 -50 47 -91 47 -24 0 -70 9 -101 20 -32 11 -68 20 -82 20 -34 0
-99 33 -148 75 -39 33 -40 37 -47 112 -9 103 -21 138 -69 201 -36 48 -39 56
-34 99 7 65 -4 87 -82 168 -94 97 -95 99 -86 224 6 106 6 107 -30 196 -47 117
-66 135 -194 186 -129 50 -188 87 -235 144 -51 62 -88 72 -162 44 -101 -37
-107 -36 -161 14 -83 77 -112 83 -225 42 -80 -29 -120 -32 -139 -9 -32 39 -68
46 -238 49 -217 2 -248 17 -221 101 7 19 9 46 6 59 -13 52 -120 126 -221 152
-63 17 -73 23 -107 68 -44 59 -66 71 -139 78 -104 10 -156 51 -193 150 -25 68
-61 106 -130 137 -73 33 -146 85 -178 125 -20 26 -23 41 -23 115 0 104 -6 114
-105 210 -127 123 -142 212 -47 281 50 35 97 111 97 156 0 17 -9 60 -20 95
-31 99 -28 118 33 184 52 57 52 58 50 117 -3 79 6 92 91 131 114 52 151 119
122 221 -22 73 -20 103 10 171 40 89 43 161 10 201 -15 18 -30 53 -36 82 -12
64 -19 77 -64 119 -42 39 -54 87 -38 149 21 78 18 88 -66 176 -116 124 -131
188 -55 240 188 130 212 182 132 288 l-41 54 7 70 c11 106 9 119 -30 192 -43
81 -42 105 9 213 47 98 53 150 26 231 -26 77 -35 89 -66 89 l-24 0 31 -57z"/>
<path d="M643 6529 c-18 -18 -16 -33 13 -117 28 -83 27 -116 -8 -183 -18 -34
-19 -50 -14 -122 6 -77 5 -85 -22 -141 -32 -64 -32 -78 6 -153 23 -45 59 -77
109 -98 35 -15 73 -67 73 -101 0 -31 -57 -281 -75 -330 -12 -32 -24 -45 -58
-60 -50 -23 -57 -53 -33 -138 22 -74 20 -93 -10 -151 l-27 -49 48 -43 c26 -24
73 -63 104 -86 67 -51 121 -127 121 -170 0 -17 -19 -62 -45 -108 -69 -119 -75
-152 -46 -257 49 -179 36 -217 -99 -298 -47 -27 -94 -64 -105 -80 -11 -17 -39
-45 -62 -63 -63 -47 -75 -70 -76 -148 -1 -60 4 -77 36 -141 32 -63 39 -89 52
-197 26 -228 29 -323 10 -394 -21 -82 -15 -102 42 -144 70 -50 119 -73 224
-102 110 -31 149 -55 192 -121 30 -46 48 -59 109 -82 14 -6 60 -54 102 -106
98 -123 112 -130 248 -131 138 0 168 -19 228 -139 24 -47 29 -51 95 -74 105
-36 156 -39 205 -13 73 38 115 29 234 -53 70 -47 111 -52 208 -24 88 26 171
-11 204 -90 34 -81 80 -109 249 -146 66 -15 134 -31 150 -34 21 -5 40 -23 63
-57 32 -47 33 -53 27 -110 -8 -77 6 -137 43 -189 41 -57 54 -108 41 -165 -12
-55 -6 -85 27 -124 13 -16 24 -41 24 -57 0 -52 17 -78 67 -102 42 -20 49 -28
56 -63 5 -22 15 -63 23 -91 8 -28 14 -75 14 -105 0 -113 44 -154 192 -180 148
-26 176 -39 241 -113 78 -88 105 -131 123 -195 20 -67 34 -89 45 -69 4 8 -3
51 -16 97 -20 71 -30 90 -70 130 -25 25 -60 66 -78 90 -39 54 -110 86 -225
102 -116 16 -122 18 -148 44 -20 21 -24 34 -24 89 0 42 -7 84 -20 116 -11 28
-20 66 -20 84 0 43 -29 80 -80 100 -37 14 -40 19 -40 53 0 24 -10 51 -27 77
-26 36 -28 46 -25 118 3 85 -12 134 -52 178 -44 47 -48 63 -35 154 13 92 17
80 -53 184 -24 35 -34 42 -75 48 -88 12 -264 53 -297 69 -23 11 -42 34 -67 83
-33 64 -39 69 -110 105 l-76 39 -65 -26 c-89 -36 -119 -34 -167 9 -65 59 -206
94 -253 63 -83 -55 -240 -6 -295 90 -63 111 -111 138 -227 127 -107 -10 -151
11 -209 102 -55 85 -78 106 -150 138 -42 18 -63 34 -75 58 -37 71 -80 100
-207 139 -127 39 -216 86 -248 130 -19 25 -19 31 -7 82 10 41 11 82 4 158 -4
57 -9 150 -9 208 -1 101 -2 109 -43 205 -73 170 -68 228 24 296 30 22 60 52
66 65 7 15 42 43 82 66 154 90 179 146 135 305 -29 104 -23 173 18 234 49 71
69 141 53 192 -18 60 -68 125 -120 155 -121 69 -138 93 -110 154 24 52 25 99
4 161 -22 65 -16 89 28 109 21 10 44 31 53 48 25 48 87 374 76 402 -10 28 -69
83 -124 117 -67 41 -90 115 -58 187 16 36 21 68 21 143 0 75 5 106 21 141 26
58 27 84 1 167 -11 37 -24 83 -29 101 -6 27 -10 31 -20 21z"/>
<path d="M830 6527 c-43 -22 -46 -53 -16 -181 31 -130 28 -162 -20 -207 -88
-82 -65 -184 67 -300 235 -206 234 -205 133 -307 l-66 -66 7 -67 c9 -84 -6
-114 -79 -168 -103 -76 -120 -133 -72 -236 42 -90 127 -156 248 -193 102 -32
125 -47 152 -101 31 -60 72 -96 154 -132 75 -34 80 -44 57 -116 -16 -50 -16
-63 -5 -102 32 -113 23 -126 -128 -204 -66 -34 -94 -55 -112 -84 -25 -38 -44
-48 -145 -69 -46 -10 -61 -34 -71 -108 -9 -74 -42 -102 -130 -111 -84 -9 -113
-23 -151 -72 -55 -71 -50 -113 34 -251 67 -112 73 -158 29 -241 -41 -80 -47
-262 -10 -339 52 -107 121 -150 213 -132 67 12 241 -15 264 -42 9 -11 29 -59
44 -107 38 -124 62 -146 172 -155 98 -9 213 -36 268 -64 53 -28 80 -60 106
-128 32 -82 66 -104 162 -104 111 0 162 20 245 96 l71 65 67 -2 c37 -1 90 1
118 5 96 15 145 -34 142 -142 -2 -71 12 -96 77 -143 37 -27 48 -42 61 -86 24
-83 87 -126 216 -149 54 -9 94 -24 131 -46 29 -18 69 -42 90 -52 53 -27 78
-73 88 -161 10 -92 29 -129 78 -155 75 -38 85 -67 56 -164 -25 -82 -20 -155
14 -207 38 -59 133 -149 203 -193 68 -43 76 -63 55 -145 -17 -67 -10 -116 21
-144 26 -23 87 -47 121 -47 45 0 58 -8 95 -60 31 -43 41 -50 88 -60 101 -21
120 -51 116 -193 -3 -116 2 -130 56 -143 l29 -7 -28 37 c-27 35 -27 38 -21
125 11 135 -24 191 -129 208 -31 5 -52 18 -90 59 -39 40 -60 54 -90 59 -134
23 -149 45 -130 186 10 74 -5 100 -102 182 -105 87 -169 157 -177 194 -4 17 2
68 14 123 11 52 20 104 20 116 0 30 -35 72 -78 92 -54 26 -73 60 -82 144 -10
105 -29 133 -127 182 -29 14 -67 39 -85 55 -50 43 -92 61 -145 61 -88 1 -173
59 -173 119 0 19 -18 42 -67 88 l-67 62 -5 79 c-11 147 -42 167 -248 156
l-145 -7 -57 -57 c-64 -64 -148 -100 -232 -100 -55 0 -102 37 -114 89 -24 111
-159 177 -422 207 -74 8 -70 3 -117 127 -62 160 -49 154 -343 175 -121 8 -144
22 -185 102 -40 77 -41 240 -4 298 57 86 55 182 -5 277 -71 113 -91 163 -75
194 32 61 73 84 175 100 90 14 131 60 131 146 0 48 26 71 96 85 51 11 65 19
114 71 38 40 76 67 120 87 41 18 80 45 104 72 37 41 38 44 31 94 -10 72 -9
124 3 176 13 58 -1 90 -48 110 -109 47 -132 64 -164 124 -39 75 -63 92 -161
117 -118 29 -191 84 -241 181 -46 91 -36 116 90 222 67 57 76 74 63 131 -14
61 -4 88 59 156 103 112 94 145 -75 288 -175 148 -206 210 -145 286 71 89 73
104 33 273 -21 87 -19 109 13 155 22 30 10 35 -32 14z"/>
<path d="M1000 6525 c-16 -20 -7 -100 20 -177 24 -69 25 -99 5 -164 -49 -163
6 -301 137 -339 60 -17 98 -51 98 -87 0 -10 9 -36 20 -58 29 -57 27 -65 -54
-178 -167 -232 -192 -425 -67 -507 49 -33 62 -52 90 -136 32 -97 51 -111 174
-128 111 -16 167 -72 167 -168 0 -51 22 -107 64 -170 52 -76 31 -130 -71 -179
-83 -39 -113 -75 -113 -136 0 -64 -17 -87 -79 -104 -288 -81 -315 -109 -331
-339 -10 -150 -24 -190 -117 -329 -110 -164 -146 -239 -140 -294 14 -129 161
-210 303 -167 98 30 112 22 213 -129 110 -162 189 -197 361 -161 98 21 115 12
155 -82 67 -156 111 -192 212 -174 32 6 78 22 103 35 263 138 321 157 413 136
109 -24 217 -103 259 -188 21 -42 23 -60 21 -171 -2 -147 0 -152 80 -193 60
-32 66 -33 222 -38 223 -7 244 -25 245 -200 1 -162 32 -206 156 -221 156 -19
237 -52 322 -132 77 -73 85 -93 90 -224 6 -147 -8 -177 -115 -259 -85 -65
-113 -103 -113 -152 0 -75 52 -129 137 -142 162 -26 273 -109 302 -225 20 -78
67 -119 168 -145 68 -17 107 -70 100 -137 -5 -46 -3 -53 12 -53 32 0 44 26 38
81 -11 93 -72 159 -148 159 -73 0 -119 39 -119 102 -1 109 -150 233 -310 257
-85 13 -116 30 -131 69 -16 42 14 86 114 165 127 100 140 133 121 285 -21 164
-25 172 -117 266 -111 113 -143 129 -278 131 -162 2 -172 13 -182 187 -9 168
-42 214 -174 244 -59 13 -98 15 -183 9 l-108 -7 -33 30 -33 30 -6 120 c-10
198 -65 281 -240 366 -75 36 -93 41 -155 41 -95 0 -222 -42 -330 -111 -169
-105 -238 -93 -279 49 -20 69 -83 142 -129 151 -19 3 -68 -1 -110 -10 -111
-23 -171 -9 -233 54 -42 42 -104 148 -104 178 0 21 -69 73 -104 79 -20 4 -64
0 -105 -9 -92 -21 -144 -20 -190 3 -112 57 -97 148 58 364 91 127 110 180 122
337 16 207 58 264 221 302 158 36 158 36 174 73 8 19 14 52 14 74 0 41 38 101
64 101 7 0 36 12 64 26 95 47 103 108 35 258 -30 65 -38 95 -40 151 -4 110
-64 158 -228 185 -85 14 -94 23 -131 125 -11 33 -38 71 -78 113 -57 59 -60 66
-64 120 -7 95 60 261 150 373 64 79 72 100 58 161 -22 107 -81 175 -172 202
-106 30 -117 71 -94 338 8 87 7 104 -14 167 -15 46 -21 83 -17 106 6 39 -18
50 -43 20z"/>
<path d="M1297 6525 c-20 -19 -21 -37 -7 -85 33 -108 32 -123 -10 -228 -61
-151 -54 -194 41 -267 98 -75 138 -203 100 -318 -34 -102 -12 -192 65 -267 86
-85 99 -115 100 -240 1 -58 2 -113 3 -122 0 -9 19 -38 41 -63 58 -67 62 -79
64 -174 2 -92 21 -142 87 -234 39 -54 40 -117 2 -190 -15 -30 -27 -72 -29 -99
-3 -61 -26 -92 -112 -153 -57 -40 -78 -63 -113 -124 -49 -83 -96 -120 -185
-146 -77 -22 -94 -48 -94 -148 0 -63 -6 -98 -31 -169 -39 -114 -35 -132 48
-220 86 -92 107 -139 108 -248 2 -109 10 -123 99 -165 41 -19 81 -46 90 -60
31 -47 71 -59 186 -57 l104 2 53 -36 c52 -35 56 -36 117 -30 l63 6 55 -60 c73
-79 93 -78 222 15 61 44 95 45 186 5 38 -17 78 -30 90 -30 99 0 162 -50 209
-169 31 -77 62 -115 116 -147 13 -7 20 -28 26 -73 12 -104 67 -143 230 -161
88 -10 100 -14 186 -66 125 -74 129 -82 153 -259 17 -123 34 -139 150 -149
124 -10 137 -17 231 -115 63 -66 88 -101 102 -140 11 -32 38 -74 69 -108 46
-51 50 -59 44 -92 -4 -20 -10 -71 -13 -113 l-6 -77 80 -83 c123 -128 163 -230
134 -342 -19 -77 12 -124 129 -199 109 -70 143 -128 142 -245 l-1 -73 27 3
c25 3 27 7 30 56 7 124 -45 213 -173 297 -112 74 -122 89 -105 159 28 116 -9
222 -118 340 -86 92 -97 121 -88 232 8 95 3 109 -58 169 -26 26 -49 63 -64
103 -19 51 -40 79 -111 152 -102 105 -130 119 -217 112 -113 -9 -146 20 -158
139 -11 114 -30 162 -85 211 -81 73 -179 116 -304 133 -148 20 -167 33 -167
114 0 60 -14 86 -62 114 -45 26 -63 53 -94 141 -32 92 -120 166 -214 180 -25
4 -85 21 -133 38 -107 37 -137 32 -218 -37 -73 -62 -107 -62 -151 0 -40 56
-84 79 -135 68 -48 -9 -55 -7 -128 28 -53 26 -72 29 -167 32 l-107 2 -38 37
c-21 21 -66 51 -101 68 -34 16 -63 36 -63 42 -1 7 -2 49 -3 93 -1 103 -29 165
-119 263 -77 83 -81 99 -41 186 19 42 27 81 33 152 8 112 16 122 107 149 71
21 123 68 164 150 30 61 72 105 99 105 6 0 31 20 55 44 39 38 48 58 85 172 22
71 43 140 46 154 9 39 -17 108 -68 183 -47 68 -47 69 -47 153 0 99 -15 143
-68 197 l-37 38 -5 132 c-6 146 -31 215 -92 258 -73 52 -92 136 -62 265 13 56
13 80 4 132 -19 111 -49 155 -160 240 -41 32 -39 67 11 192 l41 102 -17 100
c-23 136 -26 145 -48 123z"/>
<path d="M1513 6533 c-19 -7 -56 -137 -48 -165 4 -13 29 -57 56 -99 64 -98 69
-127 34 -209 -36 -86 -32 -135 21 -220 39 -63 39 -65 36 -153 -2 -84 0 -94 37
-176 21 -47 46 -111 56 -141 27 -85 61 -136 118 -179 75 -55 122 -138 122
-212 0 -48 -7 -71 -48 -151 -57 -112 -59 -138 -11 -198 33 -41 35 -49 29 -90
-4 -25 -9 -61 -12 -82 -4 -28 3 -55 31 -116 58 -128 48 -182 -57 -284 -67 -66
-87 -111 -87 -193 0 -54 -38 -84 -147 -117 -112 -34 -143 -57 -143 -105 0 -39
39 -117 96 -192 39 -51 45 -116 19 -191 -44 -124 4 -230 111 -247 39 -6 84
-37 84 -57 0 -21 62 -87 101 -106 24 -13 59 -20 96 -20 45 -1 71 -8 113 -30
74 -40 92 -38 203 20 121 63 141 64 208 4 74 -65 119 -84 207 -84 93 0 132
-17 189 -80 59 -66 86 -79 189 -91 161 -18 224 -88 224 -248 0 -104 47 -161
146 -176 59 -8 108 -52 128 -113 11 -30 32 -61 60 -87 30 -27 47 -53 55 -82 6
-24 16 -61 21 -82 18 -71 36 -83 131 -91 166 -14 231 -70 246 -210 7 -69 25
-99 84 -136 36 -23 39 -28 39 -72 0 -29 10 -67 25 -100 16 -34 25 -72 25 -102
0 -90 34 -140 132 -192 108 -58 168 -124 168 -186 0 -15 -16 -61 -36 -102 -59
-119 -35 -182 92 -239 130 -60 172 -137 135 -251 -23 -68 -22 -90 3 -90 13 0
56 133 56 172 -1 75 -79 165 -186 214 -105 47 -119 88 -62 178 44 67 45 139 6
207 -30 51 -61 77 -164 137 -73 42 -104 82 -104 132 0 19 -14 81 -62 273 -6
27 -19 44 -48 62 -49 31 -50 33 -66 122 -26 150 -131 232 -299 233 -64 0 -79
19 -90 115 -7 56 -11 63 -61 111 -34 32 -59 66 -69 94 -22 63 -60 98 -125 116
-125 35 -128 37 -136 151 -13 185 -86 268 -252 284 -99 10 -129 24 -178 85
-54 66 -99 86 -204 89 -98 3 -120 12 -198 79 -75 64 -109 63 -255 -5 l-108
-51 -62 30 c-41 21 -84 33 -127 37 -96 9 -116 20 -136 70 -23 61 -59 91 -129
110 -33 8 -66 23 -72 32 -17 23 -16 96 2 163 31 117 18 172 -69 275 -91 106
-79 135 71 181 127 39 173 89 173 191 0 54 13 77 82 145 91 90 110 175 63 276
-40 87 -48 126 -34 187 14 64 9 90 -31 140 -38 48 -38 68 4 152 19 37 44 92
56 120 l22 53 -27 67 c-38 96 -59 127 -115 168 -61 45 -105 113 -126 195 -9
36 -30 92 -47 125 -28 53 -31 70 -32 145 0 79 -3 91 -42 173 -50 104 -50 103
-18 195 38 108 29 154 -48 255 -47 62 -52 90 -27 161 28 82 27 93 -7 79z"/>
<path d="M1799 6523 c-21 -24 -18 -159 4 -200 9 -17 43 -53 74 -78 134 -109
139 -209 17 -347 -62 -69 -87 -128 -88 -203 0 -71 11 -93 75 -162 27 -28 49
-60 50 -70 7 -119 28 -166 98 -217 48 -34 111 -107 111 -128 0 -40 37 -82 95
-108 93 -42 145 -117 145 -210 0 -41 -53 -94 -112 -112 -92 -27 -118 -87 -87
-204 l20 -77 -26 -36 c-31 -45 -32 -81 -4 -167 27 -83 22 -106 -41 -194 -66
-93 -73 -112 -59 -160 20 -67 1 -94 -101 -145 -144 -72 -153 -99 -68 -195 58
-66 82 -134 79 -230 -8 -240 -8 -240 22 -266 25 -21 38 -24 108 -24 48 0 94
-6 116 -15 54 -23 85 -18 162 21 120 63 201 58 288 -20 80 -72 151 -96 284
-96 86 0 112 -12 173 -85 59 -68 90 -85 156 -85 67 0 85 -11 115 -70 29 -56
54 -73 159 -102 166 -46 212 -110 182 -252 -10 -47 -11 -78 -5 -101 10 -34 60
-85 83 -85 40 0 107 -64 141 -134 49 -102 65 -114 164 -126 184 -23 251 -93
251 -260 0 -92 7 -109 62 -164 38 -37 40 -41 34 -85 -22 -165 -20 -195 23
-244 16 -18 34 -51 40 -74 14 -50 53 -85 120 -108 109 -36 139 -112 96 -242
-24 -74 -26 -89 -16 -123 14 -48 68 -96 123 -110 172 -44 225 -70 265 -129 28
-41 30 -103 5 -148 -60 -109 -71 -133 -63 -138 20 -12 43 10 84 79 49 84 54
145 16 223 -36 75 -82 99 -291 153 -96 25 -115 71 -78 188 44 139 -3 249 -123
288 -66 21 -92 45 -111 101 -8 24 -26 58 -40 74 -35 41 -42 88 -22 145 30 88
23 126 -34 189 l-50 55 0 83 c0 97 -25 160 -86 219 -45 42 -68 52 -156 68
-136 24 -137 25 -169 95 -39 86 -78 128 -143 155 -76 30 -94 66 -79 154 17 99
-1 168 -61 234 -31 35 -62 48 -151 67 -98 20 -118 32 -149 93 -27 54 -57 72
-119 72 -60 1 -118 30 -162 84 -66 81 -85 90 -210 97 -119 6 -154 18 -230 79
-114 91 -201 99 -337 30 l-87 -44 -50 23 c-45 22 -53 22 -98 11 -114 -29 -126
-8 -127 215 -1 189 -2 191 -75 280 -61 74 -57 85 50 140 117 60 132 83 124
180 l-6 70 60 80 c69 91 68 87 40 208 l-21 90 28 53 28 52 -19 77 c-28 113
-25 118 115 198 76 44 97 87 80 166 -22 102 -75 170 -167 213 -37 17 -49 31
-78 88 -30 60 -130 170 -154 170 -12 0 -31 48 -31 76 0 60 -23 114 -75 174
-86 99 -83 167 12 286 71 88 103 155 103 217 0 71 -19 105 -114 205 l-86 91 6
84 c7 87 -1 112 -27 80z"/>
<path d="M2008 6523 c-26 -30 -38 -60 -38 -93 0 -33 1 -34 114 -137 55 -50 59
-78 20 -155 -19 -37 -24 -59 -20 -82 4 -17 9 -43 12 -58 5 -20 -2 -40 -24 -75
-17 -27 -40 -86 -52 -132 -12 -47 -28 -94 -36 -105 -22 -31 -17 -55 22 -119
23 -37 37 -74 39 -100 2 -23 4 -45 4 -48 1 -3 33 -46 71 -95 39 -49 84 -117
100 -150 34 -71 43 -79 90 -89 90 -18 210 -127 210 -190 0 -20 14 -72 31 -115
50 -126 27 -184 -73 -182 -112 2 -154 -42 -144 -153 6 -64 4 -82 -14 -121 -25
-58 -25 -90 0 -154 28 -72 26 -112 -9 -152 -43 -50 -61 -92 -70 -166 -10 -79
-25 -113 -81 -177 -49 -56 -49 -67 -5 -116 39 -43 42 -59 21 -121 -31 -93 -31
-113 3 -144 25 -24 33 -40 38 -84 7 -60 37 -100 74 -100 12 0 56 16 99 35 96
43 121 44 201 1 35 -18 102 -46 149 -61 47 -16 101 -38 120 -51 67 -44 136
-48 250 -14 52 15 156 12 190 -5 38 -20 50 -43 60 -117 10 -70 33 -101 97
-130 23 -10 62 -34 86 -52 62 -47 81 -56 119 -56 42 0 61 -14 84 -64 12 -26
35 -50 71 -73 29 -18 64 -51 77 -72 31 -48 78 -88 115 -96 57 -12 65 -33 71
-181 5 -133 5 -134 36 -164 25 -25 43 -33 97 -40 66 -10 69 -12 141 -82 40
-40 85 -93 100 -118 15 -25 50 -65 77 -90 45 -41 50 -49 54 -98 5 -67 22 -94
90 -137 100 -64 116 -114 71 -211 -48 -102 -39 -167 26 -202 53 -28 88 -67 88
-99 0 -15 12 -52 25 -82 14 -30 31 -88 37 -130 19 -135 36 -151 175 -162 128
-9 169 -34 217 -130 41 -82 45 -123 16 -176 -11 -21 -20 -52 -20 -68 0 -40 37
-150 55 -165 30 -25 33 2 7 80 l-26 79 22 53 c72 174 -61 348 -279 367 -96 8
-115 23 -124 94 -9 78 -26 147 -46 192 -10 22 -19 52 -19 66 0 37 -35 77 -89
102 -58 28 -63 58 -27 146 53 125 32 196 -85 281 -65 47 -69 53 -69 89 0 63
-18 98 -70 135 -35 25 -57 52 -77 93 -21 44 -40 65 -75 88 -25 16 -53 43 -62
60 -23 42 -47 55 -122 64 -95 11 -99 17 -99 164 0 151 -16 185 -101 223 -39
17 -63 37 -93 77 -22 30 -60 66 -85 81 -28 16 -55 44 -72 71 -34 58 -59 75
-111 75 -37 0 -50 6 -87 40 -24 22 -68 51 -99 64 -66 30 -66 30 -77 108 -21
146 -116 186 -328 140 -115 -25 -134 -23 -202 24 -29 20 -79 41 -127 53 -43
10 -105 35 -137 55 -80 48 -126 48 -232 0 -94 -44 -103 -41 -125 45 -9 34 -24
70 -33 79 -20 23 -21 76 -1 132 18 51 11 84 -27 128 -37 43 -36 54 11 110 42
50 71 108 71 142 0 36 38 129 69 172 37 50 41 110 14 194 -16 51 -16 55 6 110
18 49 21 70 16 138 -6 86 -1 102 43 125 13 7 36 10 51 6 36 -8 105 20 131 53
25 31 25 78 1 139 -10 26 -26 80 -36 120 -16 66 -23 77 -76 128 -59 56 -145
105 -187 105 -17 0 -29 13 -51 60 -16 34 -52 91 -79 128 -77 104 -92 133 -92
178 0 28 -8 52 -25 75 -49 67 -51 75 -27 125 13 26 22 64 22 92 0 34 9 62 31
102 64 113 63 110 51 157 -11 40 -10 49 13 97 42 89 37 107 -55 200 -92 92
-97 110 -50 174 l30 42 -23 0 c-13 0 -31 -8 -39 -17z"/>
<path d="M2188 6535 c-9 -10 17 -62 52 -101 21 -24 30 -49 38 -104 13 -87 29
-109 67 -92 60 28 75 96 51 231 -19 111 -35 88 -29 -42 6 -112 5 -115 -17
-127 -28 -15 -40 -1 -40 52 0 20 -4 47 -9 61 -12 32 -104 131 -113 122z"/>
<path d="M2698 6484 c-98 -127 -91 -108 -83 -216 8 -115 -4 -149 -71 -206 -55
-46 -69 -85 -55 -153 6 -27 11 -63 11 -79 0 -49 40 -84 124 -108 119 -35 169
-105 146 -204 -21 -94 -7 -150 53 -216 18 -20 21 -34 19 -100 -1 -42 5 -115
13 -161 10 -60 12 -95 5 -127 -8 -34 -6 -56 11 -110 29 -94 24 -173 -16 -238
-17 -26 -40 -64 -52 -84 -30 -49 -29 -101 3 -162 26 -50 26 -52 12 -109 -13
-50 -13 -65 -2 -97 20 -58 17 -86 -15 -124 -35 -43 -71 -113 -71 -138 0 -10
11 -29 25 -42 45 -42 48 -81 18 -203 -42 -164 -9 -199 133 -142 77 31 92 28
189 -35 89 -58 131 -73 185 -66 49 7 79 -6 146 -59 l37 -30 166 -1 165 -2 21
-26 c22 -27 45 -87 65 -162 13 -53 42 -90 90 -114 53 -27 90 -85 140 -220 52
-139 71 -178 114 -235 18 -24 37 -60 41 -82 30 -160 125 -219 251 -153 81 43
97 38 105 -28 8 -63 18 -76 79 -107 52 -26 65 -49 75 -130 4 -30 20 -72 39
-105 19 -30 37 -73 40 -94 6 -29 21 -53 61 -92 57 -57 57 -57 89 -241 24 -141
54 -174 161 -181 59 -4 67 -7 82 -33 20 -34 48 -45 132 -54 167 -17 217 -81
186 -236 -26 -129 -21 -142 105 -232 43 -31 45 -36 50 -92 4 -35 15 -75 27
-95 22 -37 43 -176 43 -291 0 -80 26 -126 115 -202 63 -54 84 -65 97 -51 3 3
-31 42 -77 87 -81 80 -83 84 -99 157 -10 41 -20 122 -23 180 -5 111 -16 155
-39 164 -11 4 -12 10 -4 25 24 46 13 67 -81 153 -102 93 -98 83 -68 220 29
129 -69 247 -206 248 -50 0 -100 19 -126 46 -35 38 -72 54 -123 54 -79 0 -92
20 -121 193 -29 171 -31 176 -87 214 -37 24 -45 37 -56 83 -8 30 -25 67 -38
83 -13 16 -26 38 -29 50 -2 12 -9 48 -15 79 -14 70 -39 103 -99 131 -45 22
-46 23 -49 73 -5 94 -63 112 -181 56 -94 -45 -128 -23 -176 118 -12 37 -43 95
-69 129 -26 36 -48 78 -51 99 -3 20 -25 75 -49 122 -24 47 -46 97 -50 112 -8
37 -60 94 -103 114 -39 19 -58 50 -67 114 -10 65 -56 150 -96 178 -37 25 -54
26 -237 6 -67 -7 -113 8 -169 57 -25 21 -55 39 -67 40 -151 4 -175 11 -278 78
-77 50 -131 55 -194 16 -87 -54 -105 -20 -64 117 27 89 22 153 -14 202 -35 45
-34 50 13 119 47 69 57 112 40 171 -9 32 -9 53 -1 82 16 59 13 90 -14 144 -34
68 -32 86 20 161 76 107 91 202 50 319 -11 32 -14 63 -9 114 4 48 1 91 -9 133
-9 38 -13 86 -10 126 7 84 1 105 -43 158 l-36 43 7 107 c6 95 5 110 -14 146
-26 51 -79 96 -140 118 -103 37 -120 58 -124 154 -2 56 0 60 40 103 78 85 77
84 83 326 0 14 21 45 50 77 35 36 53 64 57 89 8 51 -9 46 -59 -20z"/>
<path d="M3140 6483 c-96 -116 -99 -131 -34 -204 56 -63 67 -88 99 -213 36
-141 34 -154 -25 -225 -77 -93 -83 -126 -38 -213 15 -28 19 -56 18 -110 -2
-179 7 -356 23 -410 24 -88 30 -184 16 -278 -7 -47 -13 -139 -14 -205 -2 -66
-7 -145 -13 -175 -17 -89 25 -259 85 -352 14 -20 28 -61 32 -92 5 -35 18 -70
36 -96 26 -38 28 -48 30 -146 3 -143 26 -165 137 -132 l40 12 44 -48 c33 -36
48 -46 61 -41 38 16 74 17 91 2 9 -8 34 -20 54 -26 21 -7 62 -31 92 -54 30
-23 67 -50 83 -60 15 -9 42 -28 60 -41 20 -14 51 -25 86 -29 99 -10 139 -62
130 -168 l-6 -61 66 -61 c43 -40 74 -80 88 -112 12 -28 32 -63 45 -78 25 -30
30 -83 15 -137 -11 -36 1 -59 62 -123 40 -42 62 -57 83 -58 151 -4 169 -12
241 -109 52 -69 76 -86 138 -95 63 -10 118 -72 145 -165 37 -130 50 -158 87
-191 39 -33 44 -34 169 -13 62 10 76 -17 84 -155 6 -113 21 -158 63 -186 60
-39 115 -27 210 45 104 78 148 71 265 -38 81 -75 95 -112 75 -191 -27 -101 1
-145 138 -217 144 -76 176 -184 86 -290 -42 -48 -68 -99 -96 -183 -28 -86 -28
-91 24 -153 55 -68 57 -97 13 -178 -57 -102 -9 -154 132 -143 90 7 103 -3 142
-111 l23 -61 3 48 c7 108 -50 162 -171 163 -45 0 -87 1 -93 2 -25 4 -23 36 6
87 42 73 40 118 -5 181 -61 85 -61 84 -29 165 15 39 45 96 66 126 57 81 68
107 68 163 0 99 -38 149 -173 224 -99 56 -114 78 -98 147 27 113 10 152 -112
265 -111 105 -166 108 -295 20 -93 -63 -125 -69 -169 -32 -26 22 -28 29 -33
132 -10 179 -65 236 -185 193 -70 -26 -116 22 -160 167 -43 141 -120 224 -208
224 -31 0 -63 28 -142 123 l-40 48 -94 13 -95 13 -47 51 c-45 49 -47 53 -38
89 15 67 11 107 -17 144 -14 19 -41 67 -60 106 -28 59 -43 77 -78 98 -52 30
-59 44 -50 100 13 92 -49 187 -133 200 -70 11 -109 24 -132 47 -49 45 -119 90
-220 140 -95 47 -106 51 -134 40 -29 -11 -33 -10 -59 23 -37 44 -56 49 -123
34 -78 -17 -89 -6 -82 84 6 85 -6 141 -40 185 -15 20 -28 53 -32 85 -4 29 -23
80 -43 117 -57 104 -84 227 -68 312 6 37 11 114 9 171 -1 56 3 136 10 177 16
87 9 260 -13 336 -9 32 -16 125 -19 264 -5 191 -8 220 -26 262 -27 58 -22 81
31 144 74 89 81 126 44 225 -13 35 -26 90 -30 122 -7 68 -32 120 -75 161 -39
37 -39 49 2 100 42 51 57 79 57 105 0 36 -14 30 -60 -26z"/>
<path d="M3469 6472 c-41 -38 -92 -78 -112 -91 -78 -48 -76 -229 3 -284 77
-54 62 -143 -41 -253 -40 -42 -50 -81 -33 -130 18 -52 17 -64 -6 -94 -24 -31
-25 -65 -4 -116 13 -31 15 -53 8 -109 -17 -146 -11 -204 26 -275 42 -80 51
-162 25 -239 -22 -69 -21 -145 4 -202 25 -55 18 -109 -24 -201 l-26 -56 17
-73 c11 -50 15 -95 11 -143 -7 -76 -2 -90 70 -185 29 -39 33 -51 33 -105 0
-68 10 -86 50 -86 28 0 54 -23 88 -81 36 -59 86 -72 178 -44 105 32 133 21
197 -74 30 -45 91 -80 140 -81 18 0 42 -14 70 -38 64 -59 97 -78 167 -102 153
-51 202 -126 244 -366 22 -125 65 -182 154 -205 80 -21 90 -29 107 -79 20 -60
40 -78 105 -95 66 -17 88 -33 142 -95 26 -31 88 -81 158 -126 82 -54 140 -102
205 -169 l90 -94 135 2 c239 4 325 -51 415 -267 36 -86 67 -117 145 -145 116
-42 170 -118 170 -239 0 -116 40 -191 115 -217 22 -7 41 -12 43 -11 8 8 -13
34 -39 50 -41 24 -65 83 -73 176 -13 144 -56 216 -148 254 -130 53 -149 71
-182 172 -25 76 -72 141 -138 190 -87 64 -141 79 -283 79 -138 0 -144 2 -212
82 -33 39 -91 85 -188 149 -87 56 -161 114 -196 151 -39 43 -69 65 -105 78
-84 30 -97 39 -116 83 -25 57 -52 80 -115 98 -99 29 -124 62 -149 199 -45 235
-110 330 -261 379 -61 20 -95 39 -130 70 -56 50 -94 72 -146 81 -48 9 -82 37
-107 86 -36 69 -119 87 -242 53 -72 -21 -91 -11 -138 71 -28 49 -35 55 -65 55
-42 0 -59 21 -51 61 7 37 -18 94 -69 157 -37 46 -45 89 -24 135 8 17 7 38 -5
84 -22 85 -20 140 9 217 31 82 32 139 4 191 -25 45 -22 121 6 220 19 65 11
125 -30 204 -34 69 -39 111 -25 241 11 102 10 116 -6 152 -16 35 -16 43 -4 71
8 19 14 68 14 117 l1 85 52 63 c77 92 86 174 27 248 -53 66 -64 89 -64 132 0
63 22 97 100 148 65 43 120 108 120 142 0 22 -14 13 -91 -56z"/>
<path d="M3738 6523 c-35 -40 -78 -131 -78 -165 0 -31 7 -43 46 -77 26 -23 50
-41 54 -41 14 0 30 -53 30 -101 0 -68 -33 -102 -116 -119 -77 -16 -111 -47
-119 -109 -11 -80 -13 -87 -82 -182 -82 -114 -90 -156 -50 -247 36 -79 42
-127 23 -181 -23 -64 -20 -124 10 -188 25 -52 26 -61 20 -149 -6 -84 -5 -98
16 -146 32 -75 31 -164 -5 -238 -45 -93 -32 -157 44 -224 91 -79 100 -90 121
-130 16 -31 22 -66 26 -141 5 -110 16 -135 61 -135 61 -1 141 -58 141 -101 0
-37 39 -69 86 -69 65 0 107 -22 143 -74 40 -58 71 -79 104 -71 36 9 87 -19
122 -68 51 -70 86 -87 176 -87 68 0 81 -3 107 -25 48 -40 82 -118 82 -189 1
-165 43 -248 134 -261 63 -10 89 -34 115 -104 25 -70 53 -95 128 -117 57 -17
72 -33 93 -97 18 -58 56 -76 157 -75 121 1 187 -45 218 -152 13 -44 35 -60 83
-60 40 0 49 -5 86 -44 l41 -43 118 -7 c64 -4 150 -4 190 -1 70 6 73 6 108 -23
46 -39 93 -129 113 -216 28 -119 48 -153 98 -167 86 -25 120 -78 124 -192 2
-73 7 -97 19 -86 2 3 5 48 6 100 3 131 -24 176 -121 212 -56 21 -69 42 -81
126 -10 70 -53 171 -96 221 -49 59 -70 64 -260 61 -188 -3 -196 -1 -245 55
-24 27 -38 34 -67 34 -40 0 -81 23 -81 46 0 24 -36 87 -67 116 -44 42 -93 58
-180 58 -95 0 -115 12 -138 80 -19 58 -50 86 -104 95 -51 8 -75 33 -110 110
-33 71 -67 99 -135 111 -72 11 -82 29 -97 178 -14 144 -25 172 -89 239 l-56
57 -82 0 -81 0 -80 75 c-73 68 -84 75 -121 75 -38 0 -47 6 -103 65 -67 70
-101 88 -147 79 -38 -8 -51 3 -84 71 -27 54 -83 95 -132 95 -42 0 -49 15 -55
117 -8 139 -46 206 -157 282 -68 47 -76 97 -30 191 43 89 44 160 4 249 -28 62
-28 66 -17 131 14 74 6 122 -30 192 -23 45 -24 83 -4 131 23 54 19 120 -10
177 -52 102 -44 147 42 262 53 69 67 102 78 180 8 60 23 75 83 84 113 16 152
57 152 162 0 80 -19 126 -62 148 -82 41 -85 60 -23 166 25 43 45 80 45 83 0
12 -38 4 -52 -12z"/>
<path d="M3933 6503 c5 -30 0 -51 -23 -98 -48 -95 -43 -143 19 -203 68 -65 75
-86 55 -179 -28 -137 -69 -192 -226 -306 -118 -86 -142 -155 -98 -280 24 -67
25 -122 5 -170 -23 -55 -18 -96 20 -171 40 -80 45 -137 18 -222 -27 -86 2
-115 169 -171 118 -39 158 -66 187 -126 41 -85 27 -151 -68 -312 -73 -124 -49
-195 84 -244 74 -27 97 -49 124 -112 25 -57 113 -113 236 -150 60 -18 77 -29
120 -75 41 -43 62 -58 115 -75 131 -43 199 -93 236 -174 26 -56 30 -92 12
-130 -10 -23 -8 -29 24 -63 45 -47 54 -64 67 -136 16 -89 49 -114 183 -139
111 -21 177 -72 240 -185 17 -32 64 -52 125 -52 32 0 49 -14 107 -85 23 -28
28 -30 103 -31 107 -3 145 -21 223 -104 73 -78 101 -86 177 -55 68 29 134 20
175 -23 61 -63 98 -131 98 -180 0 -37 6 -49 43 -89 35 -37 45 -43 50 -30 4 10
-1 24 -12 34 -27 26 -41 58 -41 93 0 44 -22 92 -76 161 -77 101 -126 118 -224
79 -84 -33 -95 -29 -175 55 -80 85 -100 95 -196 95 -81 0 -122 17 -144 60 -19
36 -62 60 -109 60 -55 0 -84 19 -122 81 -62 103 -117 139 -242 158 -107 17
-129 36 -148 131 -8 45 -36 100 -62 124 -18 15 -21 29 -20 85 3 138 -82 229
-266 287 -33 10 -70 30 -82 44 -13 14 -38 42 -56 63 -29 33 -40 38 -88 44 -96
10 -200 74 -235 143 -32 62 -82 105 -147 124 -117 34 -128 98 -39 230 29 42
59 95 67 118 48 137 -34 282 -184 324 -189 52 -214 79 -176 185 22 63 12 126
-33 208 l-37 68 17 53 c23 70 21 137 -5 232 l-22 80 23 42 c15 29 44 56 97 91
136 90 213 200 236 338 16 96 6 129 -59 199 -62 68 -68 105 -23 168 45 63 44
150 -2 150 -18 0 -20 -5 -15 -37z"/>
<path d="M4263 6450 c-169 -135 -179 -164 -108 -309 55 -113 60 -171 19 -256
-30 -64 -100 -130 -155 -147 -55 -16 -71 -38 -78 -112 -5 -49 -15 -78 -45
-126 l-39 -63 23 -69 c21 -63 22 -82 17 -189 l-6 -119 49 -46 c51 -48 90 -114
90 -151 0 -14 30 -49 86 -100 126 -115 151 -164 132 -256 -15 -69 5 -112 76
-166 71 -53 89 -145 45 -241 -25 -55 -19 -82 24 -111 17 -13 66 -55 107 -94
71 -67 185 -135 290 -175 51 -19 97 -56 126 -101 15 -24 41 -47 68 -60 41 -19
76 -64 76 -98 0 -18 62 -51 97 -51 20 0 44 -11 70 -33 22 -18 58 -41 81 -51
38 -17 43 -24 70 -100 16 -44 32 -102 36 -127 9 -59 26 -75 100 -88 32 -6 77
-22 100 -35 98 -59 138 -76 206 -90 94 -20 125 -40 210 -141 81 -97 72 -93
245 -97 158 -4 170 -10 219 -106 34 -66 35 -66 36 -32 0 45 -36 118 -73 144
-24 18 -49 22 -162 27 -156 6 -159 8 -241 110 -66 81 -117 111 -215 129 -35 6
-89 25 -119 42 -116 65 -144 78 -170 78 -45 0 -90 20 -95 43 -3 12 -12 58 -21
102 -23 116 -43 149 -112 183 -31 16 -73 39 -92 50 -19 12 -44 22 -55 22 -32
0 -62 26 -91 79 -19 36 -37 54 -66 67 -28 13 -50 33 -70 66 -34 55 -65 76
-168 113 -98 35 -143 61 -214 130 -33 31 -83 75 -113 97 -54 41 -69 78 -42
105 7 7 14 55 17 107 l5 96 -72 68 -71 68 2 90 c3 124 -31 180 -184 296 -25
19 -38 38 -43 64 -10 57 -40 108 -82 143 l-38 31 0 133 c0 103 -4 144 -19 186
-20 58 -19 64 35 148 11 18 23 59 27 94 l7 63 60 34 c120 67 197 171 199 267
0 42 -8 70 -47 149 -71 147 -65 168 73 271 115 86 156 135 112 135 -9 0 -68
-41 -129 -90z"/>
<path d="M4797 6518 c-4 -13 -7 -50 -7 -84 0 -77 -35 -129 -115 -175 -57 -32
-104 -79 -107 -107 -1 -9 -2 -62 -2 -117 -1 -87 -4 -104 -23 -131 -55 -77 -54
-162 2 -241 81 -114 94 -137 101 -180 13 -85 -35 -172 -118 -214 -104 -53
-146 -123 -109 -183 23 -37 27 -86 10 -135 -16 -45 -5 -74 45 -123 36 -36 46
-54 56 -103 25 -125 93 -166 225 -135 125 29 223 -76 196 -208 -14 -65 -7 -93
43 -167 30 -44 30 -59 0 -157 -16 -53 -16 -59 0 -82 21 -34 83 -64 154 -77 69
-13 85 -24 121 -81 17 -27 47 -55 72 -69 27 -15 60 -48 89 -89 67 -93 77 -98
186 -75 140 29 172 29 223 3 60 -31 80 -62 91 -137 14 -97 37 -121 147 -150
49 -13 88 -55 103 -112 9 -34 19 -43 68 -70 31 -16 76 -41 99 -55 56 -33 134
-42 168 -20 40 26 30 32 -49 32 -63 -1 -79 2 -103 22 -15 12 -51 33 -80 47
-46 21 -53 29 -68 74 -18 55 -59 97 -103 107 -104 22 -125 42 -137 130 -23
157 -153 219 -343 162 -94 -27 -115 -21 -164 54 -21 31 -50 65 -64 75 -58 40
-95 77 -116 115 -29 52 -63 68 -138 68 -103 0 -138 51 -104 150 19 55 14 96
-23 164 -25 46 -28 60 -28 153 0 96 -1 103 -30 145 -50 71 -100 91 -216 83
-126 -8 -179 19 -179 92 0 45 -25 99 -62 136 -43 42 -43 44 -22 146 5 26 1 44
-17 78 -31 57 -19 80 76 146 95 65 112 83 129 135 33 96 10 188 -75 298 -67
87 -69 119 -17 229 26 55 28 68 26 155 -4 113 0 121 98 188 102 70 143 146
130 242 -8 56 -30 83 -39 48z"/>
<path d="M5095 6523 c-14 -13 -16 -28 -11 -67 13 -113 -29 -184 -130 -221
-148 -53 -168 -75 -179 -193 -4 -43 -18 -112 -32 -155 -29 -94 -27 -102 48
-183 66 -71 67 -74 39 -162 -13 -41 -20 -92 -20 -141 0 -56 -7 -98 -25 -151
-32 -94 -32 -132 1 -175 41 -55 48 -97 29 -180 -28 -119 -14 -135 182 -194
171 -52 217 -117 215 -299 -2 -129 6 -149 74 -182 96 -46 113 -75 124 -205 9
-105 25 -142 77 -182 62 -48 121 -41 219 25 77 53 80 54 140 50 85 -5 121 -34
157 -126 34 -85 85 -146 135 -163 66 -21 99 -55 143 -144 56 -117 118 -162
209 -153 63 6 51 35 -17 40 -81 6 -107 26 -158 127 -50 100 -94 146 -155 164
-55 16 -101 72 -127 154 -31 99 -97 143 -214 143 -57 0 -91 -16 -165 -75 -101
-81 -204 -5 -204 150 0 108 -39 174 -133 221 -59 30 -65 46 -65 165 0 200
-101 313 -314 354 -93 17 -100 31 -77 133 16 66 4 130 -32 186 l-31 46 26 90
c18 64 26 115 26 172 0 51 8 109 21 159 27 96 20 120 -52 180 -62 52 -65 68
-34 156 14 40 25 93 25 118 0 94 37 140 141 180 55 21 79 38 125 87 l56 61 -7
74 c-7 73 -7 73 25 103 l32 30 -35 0 c-20 0 -43 -7 -52 -17z"/>
<path d="M5417 6515 c-15 -14 -34 -25 -41 -25 -7 0 -22 -10 -34 -23 -20 -21
-22 -32 -19 -133 2 -107 1 -112 -28 -159 -42 -69 -78 -86 -187 -94 -90 -7 -91
-7 -125 -46 -76 -88 -86 -131 -48 -213 14 -31 25 -72 25 -96 0 -31 9 -56 36
-96 41 -64 41 -95 -2 -160 -19 -28 -29 -59 -32 -96 l-5 -54 70 -69 c90 -88 94
-104 52 -233 -46 -143 -19 -188 107 -175 99 10 115 -5 140 -130 21 -107 31
-129 69 -152 21 -12 35 -30 39 -48 8 -39 46 -263 46 -273 0 -5 12 -22 26 -39
31 -37 71 -40 154 -11 114 40 162 21 233 -93 51 -81 87 -107 151 -107 90 0
128 -37 170 -163 l31 -92 45 -14 c25 -7 70 -33 101 -57 73 -56 126 -81 140
-67 8 8 -5 21 -47 48 -33 20 -71 48 -85 62 -14 13 -48 32 -75 41 -49 18 -49
18 -74 93 -43 129 -97 177 -214 188 l-61 6 -30 57 c-74 139 -176 180 -322 128
-92 -32 -96 -29 -118 119 -19 129 -40 195 -74 234 -40 45 -57 84 -70 149 -23
127 -62 161 -176 156 l-80 -3 -3 32 c-2 17 6 62 17 98 39 125 28 172 -60 256
-71 69 -76 99 -29 197 39 82 39 126 0 183 -21 32 -30 56 -30 87 0 23 -9 60
-20 82 -58 114 12 227 142 228 81 0 139 24 182 74 44 50 57 101 59 223 l2 100
33 17 c46 23 72 48 72 70 0 25 -19 22 -53 -7z"/>
<path d="M5779 6442 c-27 -163 -76 -238 -216 -328 -104 -67 -129 -105 -148
-228 -8 -46 -51 -94 -94 -102 -56 -11 -101 -86 -101 -167 0 -16 16 -55 36 -88
45 -72 52 -108 44 -224 -11 -149 12 -203 106 -256 88 -50 103 -83 119 -269 12
-127 42 -164 155 -190 78 -18 101 -46 129 -154 27 -102 48 -129 111 -146 63
-17 126 1 190 56 75 64 100 60 237 -43 97 -74 183 -99 183 -54 0 13 -8 18 -30
18 -21 0 -58 18 -118 60 -186 129 -206 131 -319 32 -108 -93 -185 -49 -229
133 l-19 77 -55 25 c-30 13 -67 26 -82 30 -75 17 -118 91 -118 202 0 114 -43
205 -114 240 -93 48 -106 78 -109 265 -2 124 -3 127 -40 200 -59 118 -44 175
60 227 71 35 98 72 107 148 9 77 30 109 101 151 164 98 272 283 250 429 -10
70 -19 59 -36 -44z"/>
<path d="M5976 6518 c-3 -13 -8 -45 -11 -73 -9 -64 -23 -90 -79 -144 -48 -47
-61 -75 -71 -157 -10 -76 -34 -109 -110 -145 -109 -51 -160 -131 -172 -272 -3
-37 -10 -70 -14 -73 -26 -16 -8 -83 40 -148 91 -123 105 -208 62 -367 -27
-102 -21 -140 35 -212 24 -30 38 -60 41 -89 8 -61 28 -94 74 -125 21 -14 56
-48 75 -75 66 -90 89 -95 187 -43 102 54 119 50 234 -56 72 -66 127 -85 218
-74 52 7 56 9 40 24 -12 12 -32 15 -87 14 -82 -3 -86 -1 -173 81 -104 97 -159
107 -257 47 -71 -45 -91 -42 -124 19 -15 28 -44 61 -68 77 -55 38 -61 46 -75
114 -7 38 -22 71 -40 92 -60 69 -65 105 -31 202 48 134 23 270 -70 380 -38 46
-41 53 -35 95 3 25 9 81 14 125 13 123 52 180 161 235 71 36 94 67 114 151 22
95 31 115 81 168 51 54 69 98 79 189 7 58 6 62 -13 62 -13 0 -22 -8 -25 -22z"/>
<path d="M6220 6520 c0 -34 -17 -57 -65 -90 -60 -41 -72 -62 -89 -152 -19 -99
-34 -126 -100 -182 -64 -55 -86 -103 -86 -187 0 -76 -16 -107 -80 -153 -89
-64 -110 -148 -61 -245 23 -43 41 -135 41 -202 0 -58 11 -89 50 -137 45 -57
59 -102 75 -240 24 -206 59 -228 232 -146 83 39 128 25 193 -58 47 -60 90 -88
137 -88 44 0 63 9 63 30 0 15 -7 16 -50 12 l-51 -5 -67 71 c-37 39 -77 75 -89
81 -38 19 -109 12 -190 -19 -42 -16 -81 -30 -85 -30 -22 0 -38 55 -48 155 -11
130 -22 171 -55 216 -50 70 -65 108 -75 198 -6 50 -22 126 -36 168 -34 106
-29 129 47 195 75 66 99 114 99 197 0 75 12 100 80 166 61 59 86 103 95 170
11 77 29 109 94 173 64 62 76 93 41 112 -17 9 -20 8 -20 -10z"/>
<path d="M6420 6505 c-8 -24 -25 -44 -51 -60 -51 -33 -68 -69 -79 -167 -14
-119 -60 -177 -160 -201 -80 -19 -109 -116 -71 -235 29 -88 21 -109 -82 -220
-80 -85 -93 -111 -84 -168 6 -37 13 -47 94 -143 56 -65 73 -108 73 -183 0
-107 49 -160 126 -139 71 20 89 15 140 -39 53 -56 59 -57 144 -33 97 27 53 51
-51 29 -34 -7 -39 -5 -79 38 -50 53 -89 65 -157 45 -60 -16 -68 -5 -78 103 -9
104 -16 123 -74 183 -119 124 -120 161 -8 276 82 85 104 167 72 273 -32 105
-12 149 89 195 105 49 133 90 146 212 8 86 18 104 77 140 38 23 63 65 63 104
0 40 -36 33 -50 -10z"/>
<path d="M6494 6305 c-33 -44 -43 -118 -21 -161 43 -85 30 -138 -47 -185 -102
-62 -107 -87 -32 -186 106 -140 96 -283 -25 -369 -71 -52 -88 -99 -55 -162 50
-96 189 -107 212 -17 9 38 0 40 -39 11 -43 -33 -98 -35 -127 -4 -35 38 -26 66
44 133 75 70 96 119 96 225 0 83 -8 106 -66 191 -56 82 -55 92 24 147 73 51
81 70 62 162 -19 92 -18 168 3 213 22 47 6 48 -29 2z"/>
<path d="M5 6309 c4 -13 16 -39 27 -57 14 -23 19 -43 15 -70 -25 -172 -24
-177 90 -320 144 -181 150 -210 63 -328 -79 -106 -79 -112 6 -289 59 -123 60
-131 49 -226 -6 -49 -4 -65 21 -120 22 -49 29 -78 28 -126 -1 -69 -9 -85 -81
-158 -45 -44 -52 -57 -61 -113 -6 -34 -9 -68 -7 -75 2 -7 6 -24 9 -39 3 -15
29 -53 57 -85 l51 -58 -5 -58 c-3 -33 -16 -81 -31 -111 -20 -41 -26 -68 -26
-120 0 -72 -10 -98 -60 -161 l-32 -40 7 -95 c16 -217 18 -208 -87 -342 l-21
-27 22 -83 c13 -46 33 -108 46 -138 13 -30 26 -79 30 -109 9 -77 37 -125 130
-222 100 -104 122 -156 109 -253 -19 -138 -13 -191 26 -231 65 -68 194 -114
318 -115 67 0 110 -18 146 -61 40 -47 71 -66 146 -89 93 -28 133 -59 165 -127
59 -125 100 -148 249 -139 106 7 114 6 168 -19 52 -24 65 -26 135 -20 65 6 97
2 190 -19 61 -14 133 -26 158 -26 30 0 71 -11 117 -31 62 -27 77 -30 129 -24
l58 7 58 -54 c32 -30 75 -65 96 -77 42 -26 66 -66 92 -156 24 -86 42 -105 181
-201 139 -96 149 -109 165 -219 10 -66 18 -85 56 -135 49 -66 68 -115 107
-279 32 -134 70 -189 180 -260 64 -42 106 -98 106 -141 0 -26 17 -60 30 -60
18 0 10 75 -14 125 -25 53 -68 98 -128 134 -68 40 -114 104 -121 163 -8 73
-67 226 -116 302 -46 69 -61 112 -61 167 0 81 -49 155 -125 189 -115 51 -195
138 -221 243 -21 82 -52 128 -111 162 -26 15 -74 53 -106 83 -58 54 -58 54
-105 46 -70 -11 -95 -8 -154 22 -42 21 -74 29 -153 35 -55 4 -122 14 -149 23
-31 10 -84 16 -143 16 -76 0 -103 4 -141 22 -50 23 -105 27 -184 14 -98 -17
-165 19 -193 104 -27 81 -151 170 -237 170 -13 0 -43 23 -77 58 -64 67 -86 76
-221 91 -150 17 -207 40 -254 104 -18 24 -20 39 -17 100 14 234 9 253 -114
372 -97 94 -119 131 -117 200 1 40 -8 68 -42 140 -73 152 -72 163 9 285 60 90
62 102 40 195 -22 89 -19 143 10 190 61 99 78 145 71 195 -5 40 -1 62 25 127
40 100 37 156 -10 211 -96 112 -94 190 8 312 82 99 91 183 30 299 -31 59 -32
65 -21 107 19 71 15 91 -48 226 -77 165 -77 183 -10 263 102 121 96 170 -48
363 -114 153 -111 142 -86 318 7 49 -9 78 -63 120 l-35 27 7 -24z"/>
<path d="M2770 6083 c-19 -50 -32 -71 -55 -83 -47 -25 -38 -78 18 -106 18 -9
54 -32 80 -51 32 -22 58 -33 74 -31 70 8 93 136 40 217 -52 78 -138 108 -157
54z m107 -47 c58 -71 63 -86 42 -134 -26 -59 -45 -64 -83 -19 -21 25 -39 37
-57 37 -51 0 -53 22 -8 89 47 71 66 76 106 27z"/>
<path d="M7 5764 c-3 -3 1 -23 8 -45 31 -86 36 -150 19 -229 -17 -82 -14 -129
17 -229 10 -35 19 -92 19 -127 0 -36 7 -81 15 -101 26 -62 19 -105 -35 -213
-55 -110 -52 -137 9 -60 70 88 102 218 66 266 -10 13 -14 45 -15 107 0 70 -5
99 -25 147 -29 69 -32 134 -10 206 22 74 19 121 -17 207 -30 74 -38 84 -51 71z"/>
<path d="M6214 5688 c-9 -18 -41 -58 -70 -90 -60 -63 -60 -64 -6 -162 72 -130
139 -109 187 58 16 55 16 63 1 110 -22 71 -52 116 -76 116 -12 0 -26 -12 -36
-32z m70 -52 c28 -58 15 -143 -30 -203 -23 -31 -54 -44 -54 -24 0 5 -16 32
-36 61 l-35 51 48 56 c26 30 54 63 62 74 19 27 26 24 45 -15z"/>
<path d="M5445 5457 c-2 -6 -6 -30 -10 -52 -3 -22 -11 -61 -17 -86 -16 -66 -5
-95 49 -129 83 -53 112 -34 101 64 -11 95 -107 254 -123 203z m81 -195 c19
-65 13 -73 -34 -45 -44 25 -52 61 -26 119 l16 39 14 -30 c7 -16 21 -54 30 -83z"/>
<path d="M1256 5289 c-30 -36 -36 -72 -21 -137 3 -12 35 -54 70 -93 43 -47 68
-84 76 -112 16 -56 38 -74 82 -69 88 10 82 82 -18 232 -40 61 -56 95 -61 132
-8 59 -24 78 -69 78 -25 0 -40 -8 -59 -31z m82 -40 c8 -60 26 -103 56 -137 60
-67 86 -115 86 -154 0 -56 -32 -53 -54 5 -9 23 -43 70 -75 104 -95 98 -113
160 -58 198 28 19 41 15 45 -16z"/>
<path d="M4584 5093 c-3 -16 -10 -41 -15 -57 -15 -49 -10 -71 25 -117 19 -24
39 -63 46 -87 18 -70 80 -95 107 -42 31 62 -7 197 -83 298 -32 42 -71 44 -80
5z m91 -105 c54 -115 60 -138 42 -162 -19 -26 -26 -19 -76 76 -39 76 -42 89
-36 131 10 66 20 60 70 -45z"/>
<path d="M1072 4557 c-6 -7 -20 -38 -32 -69 -12 -32 -26 -60 -31 -64 -19 -11
-59 -84 -59 -106 0 -65 77 -168 124 -168 70 0 166 78 166 134 -1 134 -121 330
-168 273z m71 -83 c43 -68 74 -182 58 -212 -14 -27 -114 -76 -139 -68 -22 7
-72 94 -72 126 0 12 8 34 18 48 11 15 36 57 56 95 21 37 39 67 41 67 2 0 19
-25 38 -56z"/>
<path d="M3733 4546 c-29 -11 -53 -25 -53 -31 0 -5 24 -57 53 -115 l54 -105
43 1 c64 1 90 35 90 117 0 138 -64 183 -187 133z m116 -30 c20 -24 35 -134 22
-163 -20 -43 -50 -27 -98 52 -51 84 -52 87 -10 108 40 20 71 21 86 3z"/>
<path d="M2461 4351 c-26 -26 -28 -95 -6 -185 8 -34 16 -74 17 -90 6 -62 106
-64 151 -5 74 101 -78 364 -162 280z m88 -55 c71 -63 81 -206 15 -222 -34 -9
-41 0 -69 87 -46 147 -24 204 54 135z"/>
<path d="M0 4276 c0 -2 11 -34 25 -71 26 -67 26 -82 0 -140 -7 -16 -16 -41
-20 -55 l-7 -25 27 25 c64 59 73 152 22 229 -23 34 -47 53 -47 37z"/>
<path d="M4563 4213 c-7 -2 -13 -14 -13 -26 -1 -12 -7 -33 -15 -47 -33 -58 -7
-104 82 -149 53 -27 68 -26 87 1 29 41 16 120 -27 166 -18 20 -90 64 -99 61
-2 0 -9 -3 -15 -6z m79 -70 c32 -34 51 -79 43 -104 -7 -22 -8 -22 -57 -9 -69
20 -85 58 -47 111 25 36 29 36 61 2z"/>
<path d="M6208 4164 c-74 -39 4 -156 144 -218 30 -13 75 -40 101 -60 26 -20
55 -36 64 -36 31 0 -68 90 -134 121 -71 34 -165 114 -161 137 4 18 84 44 114
37 12 -3 33 -20 48 -40 32 -42 91 -64 125 -46 33 18 25 31 -19 31 -31 0 -48 7
-77 34 -21 18 -48 38 -60 45 -30 16 -113 13 -145 -5z"/>
<path d="M2973 3958 c-45 -22 -58 -72 -33 -137 17 -46 19 -63 10 -85 -25 -66
-1 -96 79 -96 45 0 84 31 107 85 25 62 19 84 -49 165 -66 78 -78 86 -114 68z
m61 -49 c29 -23 86 -101 86 -119 0 -7 -19 -39 -42 -71 -37 -54 -45 -60 -72
-57 -33 3 -34 8 -20 89 4 24 1 47 -10 67 -20 39 -20 62 0 90 19 27 25 27 58 1z"/>
<path d="M1090 3215 c-14 -8 -32 -14 -41 -15 -10 0 -31 -16 -48 -35 -39 -45
-41 -88 -6 -111 26 -17 225 -47 250 -38 29 11 18 65 -23 113 -21 25 -47 58
-56 74 -20 30 -39 33 -76 12z m98 -101 c57 -68 56 -73 -4 -48 -26 11 -56 15
-89 11 -60 -5 -75 -1 -75 22 0 26 73 78 110 80 3 0 29 -29 58 -65z"/>
<path d="M10 2700 c0 -5 24 -27 53 -48 105 -78 125 -128 87 -217 -37 -85 -29
-123 43 -211 131 -162 141 -178 145 -249 4 -60 7 -68 46 -106 89 -90 189 -110
325 -63 76 26 138 24 156 -7 4 -5 30 -20 59 -33 63 -28 91 -61 112 -131 23
-81 38 -90 153 -89 53 0 130 4 171 8 l75 8 50 -36 c58 -42 73 -43 186 -15 145
37 251 22 462 -67 113 -47 118 -55 127 -197 8 -133 33 -192 102 -249 81 -66
116 -77 204 -64 96 14 166 -42 203 -163 17 -57 29 -76 59 -101 69 -55 93 -197
53 -313 -39 -113 -32 -231 19 -315 35 -58 39 -25 8 70 -32 101 -32 99 13 223
41 115 10 285 -65 359 -31 30 -49 59 -65 108 -43 128 -102 170 -233 166 -76
-2 -89 1 -130 25 -98 57 -128 118 -128 260 0 132 -27 176 -125 207 -22 7 -76
31 -120 53 l-80 40 -145 5 c-119 3 -153 1 -184 -12 -58 -24 -109 -21 -145 10
-49 41 -87 47 -195 29 -185 -29 -199 -25 -241 80 -30 74 -66 110 -126 130 -27
9 -52 21 -55 27 -4 5 -22 17 -42 25 -33 14 -44 13 -153 -13 -146 -34 -185 -27
-261 46 -43 42 -48 51 -48 92 0 70 -15 100 -112 221 -114 143 -112 134 -63
267 22 60 9 104 -49 163 -57 59 -146 106 -146 77z"/>
<path d="M3460 2455 c-10 -12 -11 -26 -2 -63 22 -95 25 -99 102 -123 79 -24
100 -17 100 29 0 13 5 42 12 64 15 51 -3 70 -94 92 -83 20 -102 20 -118 1z
m167 -58 c20 -20 -13 -97 -41 -97 -42 0 -96 62 -96 111 0 16 120 4 137 -14z"/>
<path d="M10 2262 c0 -110 12 -146 75 -213 44 -47 45 -50 45 -112 0 -50 5 -71
23 -97 31 -46 125 -96 197 -104 48 -6 74 -17 143 -62 96 -62 177 -94 237 -94
39 0 90 -35 90 -61 0 -5 9 -33 21 -64 32 -87 54 -94 199 -65 140 28 175 24
233 -29 87 -79 154 -91 228 -41 52 35 67 36 117 11 21 -11 56 -22 77 -26 83
-15 100 -40 142 -219 20 -85 32 -116 56 -143 58 -66 163 -102 245 -84 93 20
160 -21 187 -115 17 -59 47 -88 104 -104 21 -5 48 -21 60 -34 13 -14 42 -37
65 -53 102 -68 113 -91 118 -243 l2 -95 -51 -75 c-55 -81 -70 -115 -54 -125
12 -7 58 54 108 143 35 62 36 66 28 135 -4 40 -9 96 -10 125 -4 61 -20 90 -72
129 -21 15 -58 44 -83 65 -25 20 -65 45 -90 56 -57 24 -70 40 -95 115 -19 57
-23 62 -80 94 -58 32 -63 32 -165 30 -96 -2 -108 0 -138 21 -58 42 -81 83
-102 183 -36 166 -75 221 -166 232 -27 3 -67 15 -89 26 -50 27 -52 27 -118 -9
-80 -43 -114 -40 -173 14 -95 84 -166 98 -299 57 -111 -34 -142 -18 -170 91
-19 71 -51 98 -114 98 -69 0 -136 23 -221 76 -98 61 -148 84 -186 84 -33 0
-125 42 -146 67 -7 9 -16 51 -19 95 -5 77 -7 80 -51 126 -61 63 -69 81 -75
173 -9 124 -32 139 -33 21z"/>
<path d="M530 2073 c-56 -5 -70 -17 -70 -60 0 -108 85 -148 219 -103 31 10 67
17 78 14 14 -4 27 3 41 21 57 72 -93 143 -268 128z m142 -43 c69 0 98 -14 98
-47 0 -13 -8 -15 -43 -10 -37 5 -44 3 -52 -16 -13 -30 -75 -49 -113 -36 -33
11 -62 56 -62 94 0 28 0 28 53 21 28 -3 82 -6 119 -6z"/>
<path d="M6 1871 c-8 -12 32 -125 57 -163 34 -50 73 -67 197 -83 132 -17 187
-40 231 -96 37 -47 68 -64 130 -73 49 -7 91 -41 104 -84 9 -32 59 -87 101
-113 40 -25 109 -22 163 5 41 22 90 20 126 -4 17 -11 47 -20 67 -20 35 0 38
-2 48 -42 23 -96 60 -150 127 -186 85 -45 146 -51 224 -23 75 28 77 28 125
-54 50 -86 110 -140 183 -162 31 -10 77 -31 103 -47 42 -25 54 -28 98 -23 50
6 90 -13 90 -42 0 -5 18 -28 41 -51 57 -59 79 -111 79 -193 0 -86 13 -114 94
-210 72 -85 77 -102 45 -154 -24 -38 -21 -48 11 -38 24 8 40 42 40 86 0 37
-13 62 -59 115 -73 84 -96 139 -96 235 0 98 0 98 -121 226 l-69 73 -56 -2
c-48 -1 -62 3 -89 25 -17 15 -44 30 -58 33 -92 22 -155 72 -197 154 -44 87
-87 106 -175 75 -65 -23 -122 -19 -194 14 l-64 29 -37 97 c-38 97 -61 123 -99
109 -7 -3 -31 4 -52 15 -49 27 -109 27 -159 0 -86 -44 -130 -22 -222 114 -35
51 -85 87 -120 87 -47 0 -103 32 -134 76 -44 64 -121 94 -242 94 -92 0 -135
30 -182 128 -38 79 -48 92 -59 73z"/>
<path d="M7 1624 c-11 -11 7 -38 68 -101 l62 -64 93 -15 c114 -18 147 -32 202
-81 73 -66 111 -91 153 -98 81 -15 95 -29 125 -127 28 -92 140 -138 254 -103
70 21 107 19 146 -10 19 -14 40 -25 47 -25 29 0 83 -63 99 -115 44 -153 139
-193 321 -134 75 25 87 20 143 -56 49 -66 84 -86 173 -95 82 -9 94 -18 146
-120 48 -92 48 -88 16 -214 -35 -138 -30 -205 19 -245 25 -21 30 -6 12 39 -23
58 -20 98 15 198 34 97 33 151 -2 196 -11 13 -33 55 -50 91 -38 80 -54 91
-141 98 -83 6 -123 29 -181 105 -49 65 -91 77 -163 47 -146 -61 -225 -31 -268
100 -21 64 -49 97 -111 131 -27 15 -66 35 -85 45 -41 23 -71 24 -136 4 -126
-38 -184 -11 -228 108 -27 73 -58 104 -117 116 -65 14 -76 21 -146 82 -72 64
-144 99 -203 99 -92 0 -115 13 -208 114 -32 36 -43 42 -55 30z"/>
<path d="M5715 1512 c-64 -35 -69 -60 -22 -107 33 -33 39 -35 100 -35 74 0 97
-18 97 -73 0 -71 104 -107 122 -42 15 53 -17 147 -69 206 -78 86 -138 100
-228 51z m124 -18 c39 -8 88 -55 112 -109 20 -42 26 -125 9 -125 -13 0 -30 34
-30 59 0 11 -12 33 -26 50 -25 30 -29 31 -103 31 -83 0 -101 9 -101 47 0 39
67 61 139 47z"/>
<path d="M1871 1391 c-34 -34 -26 -61 38 -128 50 -52 63 -72 81 -132 31 -107
94 -141 157 -87 43 37 38 87 -20 216 -63 138 -69 144 -161 148 -65 4 -77 1
-95 -17z m145 -35 c12 -8 29 -37 39 -63 10 -26 31 -74 46 -105 42 -83 36 -128
-17 -128 -28 0 -40 15 -54 73 -8 28 -36 80 -71 129 -33 44 -59 85 -59 89 0 20
89 24 116 5z"/>
<path d="M3587 1292 c-30 -33 -46 -230 -22 -282 45 -100 174 -140 236 -74 31
33 31 129 0 199 -53 121 -170 206 -214 157z m104 -73 c64 -46 106 -173 79
-239 -20 -48 -85 -44 -141 10 l-41 39 6 78 c11 123 14 133 43 133 14 0 38 -9
54 -21z"/>
<path d="M320 1230 c0 -26 31 -88 63 -126 14 -16 45 -67 71 -114 77 -140 123
-161 194 -85 48 51 40 81 -40 159 -21 20 -43 54 -49 76 -16 53 -36 69 -116 91
-91 25 -123 25 -123 -1z m170 -60 c12 -6 26 -33 36 -65 10 -36 24 -61 41 -73
66 -45 79 -78 46 -114 -34 -38 -56 -24 -106 68 -26 47 -66 113 -88 146 l-40
61 46 -6 c25 -4 55 -11 65 -17z"/>
<path d="M63 1196 c-54 -10 -61 -13 -52 -28 12 -21 50 -23 114 -7 90 23 132
-12 175 -146 79 -245 203 -304 410 -196 98 51 108 49 155 -30 48 -78 59 -83
166 -75 l88 7 36 -40 c28 -31 47 -42 88 -51 32 -6 78 -28 118 -55 36 -24 96
-54 135 -66 87 -26 197 -83 240 -125 43 -40 45 -87 8 -168 -42 -92 -30 -109
116 -171 133 -55 107 -15 -32 49 -71 34 -74 41 -43 138 49 154 8 203 -248 299
-84 31 -141 59 -161 77 -41 39 -68 52 -106 52 -45 0 -84 24 -109 66 -20 34
-24 36 -59 30 -20 -3 -62 -8 -93 -12 l-56 -6 -34 42 c-107 133 -105 132 -233
65 -95 -49 -140 -56 -203 -30 -69 29 -96 70 -159 238 -56 152 -94 173 -261
143z"/>
<path d="M5024 1006 c-54 -40 15 -249 96 -291 57 -30 142 -24 191 11 88 63 64
124 -87 223 -115 75 -158 87 -200 57z m177 -91 c127 -85 141 -128 54 -169 -60
-29 -145 6 -180 74 -22 43 -31 140 -14 151 25 16 41 10 140 -56z"/>
<path d="M3980 818 c-127 -44 -148 -76 -92 -139 31 -34 83 -51 219 -71 120
-17 143 13 84 109 -16 27 -32 59 -36 73 -20 67 -49 72 -175 28z m134 -53 c4
-19 18 -48 32 -65 34 -40 27 -67 -13 -47 -16 8 -63 18 -105 22 -77 7 -134 33
-125 58 2 8 164 62 198 66 4 1 10 -15 13 -34z"/>
<path d="M10 810 c0 -11 6 -20 13 -21 100 -5 115 -15 214 -135 125 -153 155
-162 304 -89 102 50 134 54 226 30 40 -11 78 -13 125 -9 90 9 122 -5 153 -65
49 -96 122 -141 229 -141 84 0 110 -13 138 -68 13 -26 35 -66 51 -91 23 -38
27 -56 27 -116 0 -66 10 -95 32 -95 4 0 8 38 8 85 0 81 -2 88 -46 172 -71 136
-84 146 -196 153 -114 6 -149 25 -198 106 -19 32 -48 71 -63 87 l-28 29 -94
-7 c-77 -6 -105 -4 -151 11 -66 21 -101 14 -224 -41 -141 -63 -149 -61 -265
81 -92 112 -137 144 -207 144 -41 0 -48 -3 -48 -20z"/>
<path d="M6461 656 c-6 -7 -16 -39 -22 -69 -16 -91 8 -150 79 -186 30 -16 28
-1 -8 44 -35 44 -44 85 -32 140 7 36 11 40 35 37 34 -3 35 11 2 32 -30 20 -39
20 -54 2z"/>
<path d="M10 541 c0 -10 10 -26 23 -34 13 -8 29 -33 35 -56 26 -86 97 -132
174 -111 20 6 42 17 49 26 33 40 68 47 122 24 84 -36 150 -31 250 18 46 23 97
42 114 42 43 0 130 -62 192 -138 50 -60 137 -122 173 -122 35 0 50 -43 43
-116 -7 -61 -6 -66 11 -62 15 2 21 17 28 69 12 87 -2 115 -71 150 -95 49 -122
70 -164 129 -94 134 -211 162 -355 86 -77 -41 -112 -44 -184 -16 -79 31 -130
27 -180 -15 -23 -19 -50 -35 -59 -35 -37 0 -85 44 -104 95 -23 62 -43 85 -74
85 -16 0 -23 -6 -23 -19z"/>
<path d="M679 295 c-59 -51 -94 -57 -169 -30 -79 28 -132 18 -200 -36 -42 -34
-47 -34 -158 -8 -68 17 -135 -2 -140 -40 -3 -16 0 -22 10 -18 70 29 86 30 156
8 87 -26 114 -26 137 -1 55 61 114 72 222 40 59 -17 104 -6 160 40 57 48 66
49 104 10 30 -29 30 -30 27 -129 -2 -69 1 -104 9 -112 21 -21 25 -4 31 116 l5
115 -45 45 c-59 58 -81 58 -149 0z"/>
<path d="M637 114 c-42 -22 -57 -25 -110 -20 -34 3 -89 2 -122 -2 -33 -4 -74
-4 -91 1 -25 8 -41 4 -90 -21 -104 -54 -132 -89 -43 -56 50 19 188 34 329 37
72 2 102 6 123 20 26 17 77 24 77 10 0 -22 42 -75 51 -66 19 19 -44 123 -74
123 -1 0 -24 -12 -50 -26z"/>
<path d="M3060 114 c-14 -35 -13 -77 2 -92 19 -19 25 -14 32 28 8 50 24 51 73
6 81 -72 110 -66 53 12 -52 72 -141 98 -160 46z"/>
</g>
</svg>